# xmcd CD database file
#
# Track frame offsets:
#	150
#	17951
#	35562
#	56153
#	75972
#	96508
#	115862
#	135367
#	149929
#	174416
#	197465
#	213244
#	232469
#	249807
#	265008
#	289803
#
# Disc length: 4203 seconds
#
# Revision: 2
# Processed by: cddbd v1.5.1PL2 Copyright (c) Steve Scherf et al.
# Submitted via: CDex 1.51
#
DISCID=e9106910
DTITLE=BoA - BEST OF SOUL -PERFECT EDITION-
DYEAR=1900
DGENRE=
TTITLE0=LISTEN TO MY HEART
TTITLE1=ID;Peace B
TTITLE2=Amazing Kiss
TTITLE3=KIMOTIHATUTAWARU
TTITLE4=Every Heart-MINNANOKIMOTI-
TTITLE5=VALENTI
TTITLE6=KISEKI
TTITLE7=NO.1
TTITLE8=JEWEL SONG
TTITLE9=Shine We Are
TTITLE10=DOUBLE
TTITLE11=Rock With You
TTITLE12=QUINCY
TTITLE13=KONOYONOSIRUSI
TTITLE14=MERIKURI
TTITLE15=LA LA LA LOVE SONG
EXTD=
EXTT0=
EXTT1=
EXTT2=
EXTT3=
EXTT4=
EXTT5=
EXTT6=
EXTT7=
EXTT8=
EXTT9=
EXTT10=
EXTT11=
EXTT12=
EXTT13=
EXTT14=
EXTT15=
PLAYORDER=
